<svg version="1.1" id="Layer_1" xmlns="http://www.w3.org/2000/svg" xmlns:xlink="http://www.w3.org/1999/xlink" x="0px" y="0px"
	 width="100%" viewBox="0 0 176 112" enable-background="new 0 0 176 112" xml:space="preserve">
<path fill="#000000" opacity="1.000000" stroke="none" 
	d="
M93.085068,88.250656 
	C86.370453,92.788002 80.417671,93.077576 73.467110,88.644913 
	C63.960094,82.581879 53.742592,77.624329 43.770844,72.303093 
	C40.132275,70.361443 38.521687,67.585846 38.616993,63.444149 
	C38.781551,56.292877 38.759579,49.133099 38.618717,41.980766 
	C38.546299,38.303783 39.786716,35.634552 42.942680,33.632305 
	C47.989609,30.430374 52.980629,27.125206 57.836288,23.642035 
	C61.274708,21.175510 64.552216,21.212051 68.033829,23.293806 
	C71.885254,25.596682 75.861954,27.711807 79.571815,30.222382 
	C82.239967,32.027996 84.483353,31.582853 86.929779,30.049383 
	C90.584221,27.758709 94.302727,25.570307 97.959274,23.282911 
	C101.265518,21.214649 104.483658,21.153759 107.747940,23.379519 
	C112.968697,26.939314 118.206245,30.475035 123.466965,33.975449 
	C126.180473,35.780979 127.462303,38.128170 127.389809,41.497398 
	C127.228752,48.981781 127.227722,56.474480 127.387825,63.958946 
	C127.473831,67.979263 125.717148,70.403465 122.260605,72.251625 
	C112.589577,77.422569 103.031197,82.804184 93.085068,88.250656 
M56.094318,33.691418 
	C47.231007,37.326878 43.613762,43.764530 45.279907,53.298565 
	C45.731388,55.882050 45.446484,58.615215 45.324749,61.271667 
	C45.214130,63.685501 45.997669,65.291550 48.241211,66.490471 
	C58.939434,72.207466 69.594032,78.008247 80.192810,83.907394 
	C82.363968,85.115845 83.962013,84.944435 86.103157,83.719681 
	C93.742744,79.349747 101.220589,74.435616 109.359459,71.269104 
	C118.613594,67.668671 121.187965,62.041889 121.039650,52.390060 
	C120.906677,43.736706 118.612251,38.461456 111.093597,33.942078 
	C105.159454,30.375134 100.407600,28.249920 94.870987,33.468746 
	C86.441803,41.414146 78.258293,40.193253 70.135445,33.045021 
	C65.581749,29.037695 61.091129,28.865725 56.094318,33.691418 
z"/>
<path fill="#000000" opacity="1.000000" stroke="none" 
	d="
M69.284691,56.462959 
	C65.907486,56.741611 66.422539,59.053570 66.336563,60.982418 
	C66.237854,63.197052 65.580315,65.059891 63.010849,65.102921 
	C60.387711,65.146843 59.601555,63.241261 59.708832,61.047596 
	C59.873802,57.674343 58.577370,56.080627 55.067043,56.319782 
	C52.875999,56.469059 50.980705,55.710049 50.862587,53.131645 
	C50.743408,50.530083 52.521084,49.601734 54.772194,49.698505 
	C57.884411,49.832294 59.454556,48.505653 59.589874,45.399666 
	C59.689045,43.123341 60.010220,40.807022 63.005402,40.893272 
	C66.300697,40.988174 66.374466,43.555531 66.333794,45.965385 
	C66.291870,48.449123 67.366943,49.648125 69.904602,49.653221 
	C72.262993,49.657959 75.032570,49.628643 75.070236,52.894375 
	C75.111481,56.471382 72.177994,56.345024 69.284691,56.462959 
z"/>
<path fill="#000000" opacity="1.000000" stroke="none" 
	d="
M100.775711,48.841671 
	C100.930344,44.357544 103.024368,42.157112 107.106018,42.914833 
	C110.658157,43.574261 111.882889,46.226566 111.020477,49.647373 
	C110.498695,51.717022 109.100777,53.100880 106.819405,53.225708 
	C103.855865,53.387859 101.690125,52.282928 100.775711,48.841671 
z"/>
<path fill="#000000" opacity="1.000000" stroke="none" 
	d="
M91.192162,63.202721 
	C87.897659,62.225918 86.334099,60.346710 86.805634,57.237000 
	C87.153961,54.939831 88.425835,53.185398 90.842705,52.858391 
	C93.998703,52.431377 96.602371,53.600544 97.090118,56.940498 
	C97.658775,60.834522 95.924828,63.313530 91.192162,63.202721 
z"/>
</svg>