<svg version="1.1" id="Layer_1" xmlns="http://www.w3.org/2000/svg" xmlns:xlink="http://www.w3.org/1999/xlink" x="0px" y="0px"
	 width="100%" viewBox="0 0 84 68" enable-background="new 0 0 84 68" xml:space="preserve">
<path fill="none" opacity="1.000000" stroke="#000000" stroke-linecap="round" stroke-linejoin="round" stroke-width="4.000000"
	d="
M27.500000,33.000000 
	C29.564074,37.028206 28.330652,41.338482 28.425888,45.501694 
	C28.572905,51.928394 28.337122,51.624134 34.499229,51.469368 
	C35.660355,51.440205 36.955853,52.024296 38.500000,50.582272 
	C38.500000,46.679451 38.500000,42.320549 38.500000,37.750000 
	C41.666668,37.750000 44.333332,37.750000 47.500000,37.750000 
	C47.500000,42.320549 47.500000,46.679451 47.500000,50.500011 
	C48.166660,51.166672 48.336071,51.481812 48.499599,51.478790 
	C58.794083,51.288551 57.388264,52.998615 57.553082,43.000874 
	C57.608025,39.667782 56.585567,36.175224 58.500000,33.000000 
"/>
<path fill="none" opacity="1.000000" stroke="#000000" stroke-linecap="round" stroke-linejoin="round" stroke-width="3.000000"
	d="
M62.500000,34.000000 
	C59.533226,33.580116 57.790878,31.860136 56.952816,29.013893 
	C56.777447,28.418306 55.999996,28.000002 55.500000,27.499998 
	C51.414989,23.414944 47.329975,19.329889 42.961384,14.961254 
	C37.805035,20.973415 31.238358,25.152458 27.488640,31.993774 
	C26.646418,33.530396 24.836033,33.338734 23.500000,34.000000 
"/>
</svg>