<svg version="1.1" id="Layer_1" xmlns="http://www.w3.org/2000/svg" xmlns:xlink="http://www.w3.org/1999/xlink" x="0px" y="0px"
	 width="100%" viewBox="0 0 152 120" enable-background="new 0 0 152 120" xml:space="preserve">
<path fill="#FFFFFF" opacity="1.000000" stroke="none" 
	d="
M114.000000,121.000000 
	C76.034492,121.000000 38.568993,121.000000 1.051743,121.000000 
	C1.051743,81.071350 1.051743,41.142609 1.051743,1.106936 
	C51.548565,1.106936 102.097435,1.106936 152.823151,1.106936 
	C152.823151,40.999344 152.823151,80.999626 152.823151,121.000000 
	C140.143021,121.000000 127.321510,121.000000 114.000000,121.000000 
M43.770687,96.805573 
	C46.073360,97.543129 48.368771,98.892220 50.679882,98.919678 
	C66.493599,99.107567 82.314964,99.211494 98.122902,98.855583 
	C101.300491,98.784050 105.902359,97.535309 107.308449,95.260132 
	C111.584534,88.341034 114.419060,80.590553 114.574348,72.197578 
	C114.586128,71.560776 114.067291,70.901138 114.121254,70.280479 
	C114.310081,68.108307 114.141144,65.720657 115.004845,63.823006 
	C119.057976,54.917877 114.420784,47.148445 104.653534,47.000237 
	C98.223816,46.902672 91.791428,46.981785 85.636139,46.981785 
	C86.579483,41.157173 88.155426,35.646389 88.172592,30.130753 
	C88.189667,24.642647 83.370529,20.836006 76.355347,19.433010 
	C69.509697,29.551594 62.557888,39.827103 55.606075,50.102612 
	C55.289295,50.981647 53.966412,50.975552 52.643600,50.982628 
	C43.264694,51.032806 40.985462,53.356876 40.982281,62.879665 
	C40.979389,71.536819 40.820019,80.198906 41.083794,88.848007 
	C41.159531,91.331497 42.463890,93.777519 43.770687,96.805573 
z"/>
<path fill="#0C0C0C" opacity="1.000000" stroke="none" 
	d="
M43.487801,96.523148 
	C42.463890,93.777519 41.159531,91.331497 41.083794,88.848007 
	C40.820019,80.198906 40.979389,71.536819 40.982281,62.879665 
	C40.985462,53.356876 43.264694,51.032806 52.643600,50.982628 
	C53.966412,50.975552 55.289295,50.981647 55.606075,50.102612 
	C62.557888,39.827103 69.509697,29.551594 76.355347,19.433010 
	C83.370529,20.836006 88.189667,24.642647 88.172592,30.130753 
	C88.155426,35.646389 86.579483,41.157173 85.636139,46.981785 
	C91.791428,46.981785 98.223816,46.902672 104.653534,47.000237 
	C114.420784,47.148445 119.057976,54.917877 115.004845,63.823006 
	C114.141144,65.720657 114.310081,68.108307 114.121254,70.280479 
	C114.067291,70.901138 114.586128,71.560776 114.574348,72.197578 
	C114.419060,80.590553 111.584534,88.341034 107.308449,95.260132 
	C105.902359,97.535309 101.300491,98.784050 98.122902,98.855583 
	C82.314964,99.211494 66.493599,99.107567 50.679882,98.919678 
	C48.368771,98.892220 46.073360,97.543129 43.487801,96.523148 
M108.818275,62.153931 
	C111.835770,56.219566 110.203171,53.151550 103.832375,53.039448 
	C98.002953,52.936878 92.168449,53.109024 86.339607,52.991158 
	C80.641289,52.875931 78.240547,49.688812 79.584908,44.220875 
	C80.376709,41.000393 81.709053,37.845657 81.998604,34.590229 
	C82.227554,32.016132 81.237823,29.333645 80.789291,26.699293 
	C80.196594,26.668388 79.603905,26.637486 79.011208,26.606583 
	C74.512321,32.906349 69.934540,39.152195 65.567192,45.541866 
	C64.401237,47.247726 63.199429,49.383369 63.170231,51.338963 
	C62.964611,65.109200 63.061111,78.883957 63.061111,92.955498 
	C75.108635,92.955498 86.734985,93.017326 98.360062,92.922340 
	C102.491623,92.888580 104.531609,90.470154 105.032959,86.409958 
	C105.268234,84.504578 106.246964,82.699509 106.572601,80.794914 
	C107.160789,77.354668 107.593666,73.881866 107.933975,70.407242 
	C108.181381,67.881195 108.175369,65.330322 108.818275,62.153931 
M56.982864,66.537506 
	C56.982864,63.431900 56.982864,60.326298 56.982864,57.017193 
	C55.510433,57.017193 54.536655,57.021641 53.562927,57.016472 
	C47.022671,56.981762 47.020393,56.981102 47.017765,63.561947 
	C47.014980,70.528389 47.017120,77.494835 47.017139,84.461281 
	C47.017162,93.304756 47.017365,93.309036 56.061600,92.904198 
	C56.315460,92.892838 56.554642,92.553596 56.982864,92.229233 
	C56.982864,84.080467 56.982864,75.803001 56.982864,66.537506 
z"/>
<path fill="#FEFEFE" opacity="1.000000" stroke="none" 
	d="
M108.550308,62.472225 
	C108.175369,65.330322 108.181381,67.881195 107.933975,70.407242 
	C107.593666,73.881866 107.160789,77.354668 106.572601,80.794914 
	C106.246964,82.699509 105.268234,84.504578 105.032959,86.409958 
	C104.531609,90.470154 102.491623,92.888580 98.360062,92.922340 
	C86.734985,93.017326 75.108635,92.955498 63.061111,92.955498 
	C63.061111,78.883957 62.964611,65.109200 63.170231,51.338963 
	C63.199429,49.383369 64.401237,47.247726 65.567192,45.541866 
	C69.934540,39.152195 74.512321,32.906349 79.011208,26.606583 
	C79.603905,26.637486 80.196594,26.668388 80.789291,26.699293 
	C81.237823,29.333645 82.227554,32.016132 81.998604,34.590229 
	C81.709053,37.845657 80.376709,41.000393 79.584908,44.220875 
	C78.240547,49.688812 80.641289,52.875931 86.339607,52.991158 
	C92.168449,53.109024 98.002953,52.936878 103.832375,53.039448 
	C110.203171,53.151550 111.835770,56.219566 108.550308,62.472225 
z"/>
<path fill="#FEFEFE" opacity="1.000000" stroke="none" 
	d="
M56.982864,67.031525 
	C56.982864,75.803001 56.982864,84.080467 56.982864,92.229233 
	C56.554642,92.553596 56.315460,92.892838 56.061600,92.904198 
	C47.017365,93.309036 47.017162,93.304756 47.017139,84.461281 
	C47.017120,77.494835 47.014980,70.528389 47.017765,63.561947 
	C47.020393,56.981102 47.022671,56.981762 53.562927,57.016472 
	C54.536655,57.021641 55.510433,57.017193 56.982864,57.017193 
	C56.982864,60.326298 56.982864,63.431900 56.982864,67.031525 
z"/>
</svg>