<svg version="1.1" id="Layer_1" xmlns="http://www.w3.org/2000/svg" xmlns:xlink="http://www.w3.org/1999/xlink" x="0px" y="0px"
	 width="100%" viewBox="0 0 136 104" enable-background="new 0 0 136 104" xml:space="preserve">
<path fill="#FEFEFE" opacity="1.000000" stroke="none" 
	d="
M72.000000,105.000000 
	C48.000000,105.000000 24.500000,105.000000 1.000000,105.000000 
	C1.000000,70.333336 1.000000,35.666668 1.000000,1.000000 
	C46.333332,1.000000 91.666664,1.000000 137.000000,1.000000 
	C137.000000,35.666668 137.000000,70.333336 137.000000,105.000000 
	C115.500000,105.000000 94.000000,105.000000 72.000000,105.000000 
M34.235161,73.190147 
	C36.825035,77.220169 39.212650,81.406120 42.126835,85.186111 
	C43.012196,86.334518 45.351059,86.362335 47.024200,86.903397 
	C46.906746,85.041344 47.337605,82.904800 46.568695,81.368874 
	C44.291660,76.820419 40.779835,72.776352 39.121323,68.053757 
	C34.499805,54.894047 38.020935,43.132767 46.487827,32.430447 
	C47.441357,31.225164 46.879318,28.820877 47.020081,26.972593 
	C45.371460,27.598335 43.204082,27.756449 42.153812,28.921562 
	C30.610104,41.727505 28.473177,56.405926 34.235161,73.190147 
M102.453850,86.857231 
	C107.980621,81.357376 111.861359,74.868088 113.616669,67.270912 
	C117.025810,52.515842 113.752945,39.400749 103.286850,28.338545 
	C102.389908,27.390514 100.302521,27.568779 98.768143,27.223835 
	C98.802200,28.838850 98.684052,30.478497 98.939629,32.057659 
	C99.053818,32.763191 99.930824,33.337704 100.441025,33.987850 
	C106.727325,41.998356 109.668816,50.877178 108.533012,61.222710 
	C107.645485,69.306816 103.855354,75.762749 99.078186,81.955650 
	C98.307831,82.954308 97.814468,84.822289 98.236282,85.867363 
	C98.546532,86.636009 100.559265,86.717484 102.453850,86.857231 
M94.744057,71.213112 
	C101.079178,59.994389 100.335724,48.593441 92.399376,39.979267 
	C91.395744,38.889912 89.157524,38.937992 87.491280,38.459095 
	C87.523209,40.184769 86.871643,42.391781 87.694611,43.560390 
	C94.623070,53.398796 94.665977,60.519466 87.845047,70.271461 
	C86.990288,71.493530 87.526390,73.688408 87.418053,75.432549 
	C89.091354,75.002159 90.845093,74.754028 92.404587,74.065788 
	C93.204613,73.712723 93.657684,72.573494 94.744057,71.213112 
M48.824409,66.537697 
	C50.479900,69.193703 51.883640,72.068481 53.910969,74.401352 
	C54.758602,75.376740 56.930569,75.201256 58.500404,75.549034 
	C58.585304,73.947945 59.353329,71.907959 58.650017,70.813286 
	C51.166492,59.165581 51.133003,54.749458 58.459305,43.378998 
	C59.200527,42.228615 58.590298,40.207462 58.607235,38.590401 
	C56.932571,39.002666 54.592415,38.851528 53.689941,39.917534 
	C47.250698,47.523582 45.121780,56.126980 48.824409,66.537697 
M73.434120,64.896645 
	C78.759247,63.611710 81.294189,60.631004 80.879639,56.141853 
	C80.516228,52.206520 76.818436,49.014008 72.707558,49.086452 
	C68.905678,49.153454 65.603523,52.261963 65.103668,56.244438 
	C64.567429,60.516777 66.966217,63.293140 73.434120,64.896645 
z"/>
<path fill="#161616" opacity="1.000000" stroke="none" 
	d="
M34.102020,72.829514 
	C28.473177,56.405926 30.610104,41.727505 42.153812,28.921562 
	C43.204082,27.756449 45.371460,27.598335 47.020081,26.972595 
	C46.879318,28.820877 47.441357,31.225164 46.487827,32.430447 
	C38.020935,43.132767 34.499805,54.894047 39.121323,68.053757 
	C40.779835,72.776352 44.291660,76.820419 46.568695,81.368874 
	C47.337605,82.904800 46.906746,85.041344 47.024200,86.903397 
	C45.351059,86.362335 43.012196,86.334518 42.126835,85.186111 
	C39.212650,81.406120 36.825035,77.220169 34.102020,72.829514 
z"/>
<path fill="#161616" opacity="1.000000" stroke="none" 
	d="
M102.133591,86.981201 
	C100.559265,86.717484 98.546532,86.636009 98.236282,85.867363 
	C97.814468,84.822289 98.307831,82.954308 99.078186,81.955650 
	C103.855354,75.762749 107.645485,69.306816 108.533012,61.222710 
	C109.668816,50.877178 106.727325,41.998356 100.441025,33.987850 
	C99.930824,33.337704 99.053818,32.763191 98.939629,32.057659 
	C98.684052,30.478497 98.802200,28.838850 98.768143,27.223835 
	C100.302521,27.568779 102.389908,27.390514 103.286850,28.338545 
	C113.752945,39.400749 117.025810,52.515842 113.616669,67.270912 
	C111.861359,74.868088 107.980621,81.357376 102.133591,86.981201 
z"/>
<path fill="#151515" opacity="1.000000" stroke="none" 
	d="
M94.505798,71.501335 
	C93.657684,72.573494 93.204613,73.712723 92.404587,74.065788 
	C90.845093,74.754028 89.091354,75.002159 87.418053,75.432549 
	C87.526390,73.688408 86.990288,71.493530 87.845047,70.271461 
	C94.665977,60.519466 94.623070,53.398796 87.694611,43.560390 
	C86.871643,42.391781 87.523209,40.184769 87.491287,38.459091 
	C89.157524,38.937992 91.395744,38.889912 92.399376,39.979267 
	C100.335724,48.593441 101.079178,59.994389 94.505798,71.501335 
z"/>
<path fill="#151515" opacity="1.000000" stroke="none" 
	d="
M48.787529,66.140099 
	C45.121780,56.126980 47.250698,47.523582 53.689941,39.917534 
	C54.592415,38.851528 56.932571,39.002666 58.607239,38.590401 
	C58.590298,40.207462 59.200527,42.228615 58.459305,43.378998 
	C51.133003,54.749458 51.166492,59.165581 58.650017,70.813286 
	C59.353329,71.907959 58.585304,73.947945 58.500404,75.549026 
	C56.930569,75.201256 54.758602,75.376740 53.910969,74.401352 
	C51.883640,72.068481 50.479900,69.193703 48.787529,66.140099 
z"/>
<path fill="#141414" opacity="1.000000" stroke="none" 
	d="
M73.046280,64.942497 
	C66.966217,63.293140 64.567429,60.516777 65.103668,56.244438 
	C65.603523,52.261963 68.905678,49.153454 72.707558,49.086452 
	C76.818436,49.014008 80.516228,52.206520 80.879639,56.141853 
	C81.294189,60.631004 78.759247,63.611710 73.046280,64.942497 
z"/>
</svg>