<svg version="1.1" id="Layer_1" xmlns="http://www.w3.org/2000/svg" xmlns:xlink="http://www.w3.org/1999/xlink" x="0px" y="0px"
	 width="100%" viewBox="0 0 74 54" enable-background="new 0 0 74 54" xml:space="preserve">
<path fill="none" opacity="1.000000" stroke="#000000" stroke-linecap="round" stroke-linejoin="round" stroke-width="3.000000"
	d="
M39.500000,29.000000 
	C37.997551,29.131556 36.495102,29.263109 34.870483,29.405361 
	C33.296638,28.255350 32.970406,26.184423 32.000000,24.500000 
"/>
<path fill="none" opacity="1.000000" stroke="#000000" stroke-linecap="round" stroke-linejoin="round" stroke-width="3.000000"
	d="
M32.000000,10.500000 
	C24.194965,12.952117 18.739161,17.291449 16.846605,25.966536 
	C15.152292,33.732910 20.124794,44.036739 30.035492,46.876118 
	C39.284405,49.525902 48.265175,45.307526 52.367050,35.444706 
	C56.072964,26.533955 51.469555,17.603254 44.557457,13.405395 
	C40.704327,11.065310 36.783714,10.365150 32.500000,10.500000 
"/>
<path fill="none" opacity="1.000000" stroke="#000000" stroke-linecap="round" stroke-linejoin="round" stroke-width="2.000000"
	d="
M33.000000,18.000000 
	C29.502405,19.143986 26.485039,20.941679 25.016888,24.506954 
	C22.438955,30.767235 24.919798,36.157391 30.515808,38.968529 
	C35.757633,41.601753 41.727448,39.374847 44.500004,34.000000 
	C47.588188,28.013277 45.882946,22.549109 40.003227,19.493790 
	C37.955482,18.429707 35.834347,17.773382 33.500000,18.000000 
"/>
</svg>