<svg version="1.1" id="Layer_1" xmlns="http://www.w3.org/2000/svg" xmlns:xlink="http://www.w3.org/1999/xlink" x="0px" y="0px"
	 width="100%" viewBox="0 0 80 64" enable-background="new 0 0 80 64" xml:space="preserve">
<path fill="#FFFFFF" opacity="1.000000" stroke="none" 
	d="
M46.000000,65.000000 
	C30.666666,65.000000 15.833333,65.000000 1.000000,65.000000 
	C1.000000,43.666668 1.000000,22.333334 1.000000,1.000000 
	C27.666666,1.000000 54.333332,1.000000 81.000000,1.000000 
	C81.000000,22.333334 81.000000,43.666668 81.000000,65.000000 
	C69.500000,65.000000 58.000000,65.000000 46.000000,65.000000 
M54.273479,39.209190 
	C52.030403,37.993542 49.787327,36.777897 47.338329,35.450649 
	C47.338329,40.747086 47.338329,45.294888 47.338329,50.764542 
	C52.211617,47.996067 56.408043,45.612118 61.238914,42.867741 
	C58.584949,41.546993 56.715199,40.616508 54.273479,39.209190 
M45.486122,22.009123 
	C49.973049,21.677933 54.636745,22.703039 60.261990,20.996185 
	C54.648582,18.100286 25.680845,18.478210 23.081305,22.009123 
	C30.217979,22.009123 37.354656,22.009123 45.486122,22.009123 
M31.594749,30.009123 
	C36.245213,30.009123 40.900620,30.142633 45.544727,29.970827 
	C50.012138,29.805557 54.657215,30.719349 60.364010,28.946562 
	C54.316940,26.042976 25.519354,26.528511 22.325611,29.643749 
	C25.615837,29.788511 28.122887,29.898817 31.594749,30.009123 
M23.393372,37.325119 
	C29.966227,38.538723 36.483681,38.361385 43.042641,36.589386 
	C41.995090,35.559395 40.879032,35.047485 39.752544,35.023418 
	C35.269501,34.927620 30.779593,34.886780 26.300680,35.053135 
	C25.198902,35.094055 24.129036,35.994164 23.393372,37.325119 
M27.774876,42.983475 
	C26.157303,43.221783 24.539732,43.460091 22.015341,43.831997 
	C26.394749,46.704689 39.762749,46.672604 43.044815,42.983475 
	C38.268013,42.983475 33.491211,42.983475 27.774876,42.983475 
z"/>
<path fill="#111111" opacity="1.000000" stroke="none" 
	d="
M54.559464,39.447609 
	C56.715199,40.616508 58.584949,41.546993 61.238914,42.867741 
	C56.408043,45.612118 52.211617,47.996067 47.338329,50.764542 
	C47.338329,45.294888 47.338329,40.747086 47.338329,35.450649 
	C49.787327,36.777897 52.030403,37.993542 54.559464,39.447609 
z"/>
<path fill="#080808" opacity="1.000000" stroke="none" 
	d="
M44.988728,22.009123 
	C37.354656,22.009123 30.217979,22.009123 23.081305,22.009123 
	C25.680845,18.478210 54.648582,18.100286 60.261990,20.996185 
	C54.636745,22.703039 49.973049,21.677933 44.988728,22.009123 
z"/>
<path fill="#080808" opacity="1.000000" stroke="none" 
	d="
M31.112343,30.009123 
	C28.122887,29.898817 25.615837,29.788511 22.325611,29.643749 
	C25.519354,26.528511 54.316940,26.042976 60.364010,28.946562 
	C54.657215,30.719349 50.012138,29.805557 45.544727,29.970827 
	C40.900620,30.142633 36.245213,30.009123 31.112343,30.009123 
z"/>
<path fill="#0B0B0B" opacity="1.000000" stroke="none" 
	d="
M23.218935,36.912201 
	C24.129036,35.994164 25.198902,35.094055 26.300680,35.053135 
	C30.779593,34.886780 35.269501,34.927620 39.752544,35.023418 
	C40.879032,35.047485 41.995090,35.559395 43.042641,36.589386 
	C36.483681,38.361385 29.966227,38.538723 23.218935,36.912201 
z"/>
<path fill="#0B0B0B" opacity="1.000000" stroke="none" 
	d="
M28.244642,42.983475 
	C33.491211,42.983475 38.268013,42.983475 43.044815,42.983475 
	C39.762749,46.672604 26.394749,46.704689 22.015341,43.831997 
	C24.539732,43.460091 26.157303,43.221783 28.244642,42.983475 
z"/>
</svg>