<svg version="1.1" id="Layer_1" xmlns="http://www.w3.org/2000/svg" xmlns:xlink="http://www.w3.org/1999/xlink" x="0px" y="0px"
	 width="100%" viewBox="0 0 126 128" enable-background="new 0 0 126 128" xml:space="preserve">
<path fill="#FFFFFF" opacity="1.000000" stroke="none" 
	d="
M58.000000,129.000000 
	C38.666668,129.000000 19.833334,129.000000 1.000000,129.000000 
	C1.000000,86.333336 1.000000,43.666668 1.000000,1.000000 
	C43.000000,1.000000 85.000000,1.000000 127.000000,1.000000 
	C127.000000,43.666668 127.000000,86.333336 127.000000,129.000000 
	C104.166664,129.000000 81.333336,129.000000 58.000000,129.000000 
M41.768784,113.008446 
	C54.584988,113.008438 67.401909,113.091667 80.217163,112.981644 
	C90.161102,112.896278 96.841011,106.411713 96.965118,96.557426 
	C97.132782,83.243988 97.062675,69.926514 96.980370,56.611473 
	C96.947090,51.226902 94.761353,49.113838 89.438225,49.007713 
	C85.334480,48.925900 81.227798,48.991405 77.156952,48.991405 
	C76.634285,36.304974 71.628075,29.427294 62.207493,29.291796 
	C58.538586,29.239023 54.425884,30.704931 51.241951,32.661507 
	C45.446888,36.222660 44.840363,42.592930 44.803326,48.991467 
	C40.610828,48.991467 36.801983,48.938583 32.995152,49.003685 
	C27.074966,49.104919 25.023409,51.174412 25.003971,57.176567 
	C24.962467,69.992653 24.938742,82.809242 25.007980,95.625092 
	C25.063540,105.909187 30.527597,111.825150 41.768784,113.008446 
z"/>
<path fill="#070707" opacity="1.000000" stroke="none" 
	d="
M41.308853,113.006065 
	C30.527597,111.825150 25.063540,105.909187 25.007980,95.625092 
	C24.938742,82.809242 24.962467,69.992653 25.003971,57.176567 
	C25.023409,51.174412 27.074966,49.104919 32.995152,49.003685 
	C36.801983,48.938583 40.610828,48.991467 44.803326,48.991467 
	C44.840363,42.592930 45.446888,36.222660 51.241951,32.661507 
	C54.425884,30.704931 58.538586,29.239023 62.207493,29.291796 
	C71.628075,29.427294 76.634285,36.304974 77.156952,48.991405 
	C81.227798,48.991405 85.334480,48.925900 89.438225,49.007713 
	C94.761353,49.113838 96.947090,51.226902 96.980370,56.611473 
	C97.062675,69.926514 97.132782,83.243988 96.965118,96.557426 
	C96.841011,106.411713 90.161102,112.896278 80.217163,112.981644 
	C67.401909,113.091667 54.584988,113.008438 41.308853,113.006065 
M86.372902,55.008060 
	C67.984947,55.008060 49.596992,55.008060 31.012037,55.008060 
	C31.012037,69.046791 30.893898,82.498291 31.059690,95.946297 
	C31.148434,103.144577 35.023575,106.868134 42.376923,106.952858 
	C54.681335,107.094635 66.989334,107.073738 79.294350,106.961166 
	C87.154617,106.889259 90.896996,103.133423 90.963997,95.277771 
	C91.068939,82.972618 90.882645,70.664253 91.068863,58.361027 
	C91.115196,55.299706 89.943161,54.618496 86.372902,55.008060 
M59.867149,35.095367 
	C52.305641,37.605309 50.442131,40.598923 51.420364,48.685894 
	C57.925270,48.685894 64.430176,48.685894 70.919083,48.685894 
	C71.103920,39.636597 68.446014,36.178310 59.867149,35.095367 
z"/>
<path fill="#FFFFFF" opacity="1.000000" stroke="none" 
	d="
M86.857819,55.008072 
	C89.943161,54.618496 91.115196,55.299706 91.068863,58.361027 
	C90.882645,70.664253 91.068939,82.972618 90.963997,95.277771 
	C90.896996,103.133423 87.154617,106.889259 79.294350,106.961166 
	C66.989334,107.073738 54.681335,107.094635 42.376923,106.952858 
	C35.023575,106.868134 31.148434,103.144577 31.059690,95.946297 
	C30.893898,82.498291 31.012037,69.046791 31.012037,55.008060 
	C49.596992,55.008060 67.984947,55.008060 86.857819,55.008072 
M46.413773,71.790497 
	C51.095402,79.082787 57.292389,82.220825 64.222389,80.808464 
	C70.198090,79.590607 75.912987,74.034927 76.593178,68.039207 
	C76.807625,66.148888 75.369713,64.071106 74.688042,62.079121 
	C73.369156,63.601192 71.375595,64.921028 70.848236,66.680351 
	C68.569923,74.281151 60.992455,77.492622 55.084999,72.599083 
	C53.020866,70.889229 52.439743,67.473816 50.890762,65.020790 
	C50.141335,63.833961 48.720055,63.071384 47.602966,62.116718 
	C46.738747,63.338894 45.316669,64.489861 45.149303,65.800995 
	C44.932503,67.499397 45.716015,69.325478 46.413773,71.790497 
z"/>
<path fill="#F7F7F7" opacity="1.000000" stroke="none" 
	d="
M60.261200,35.048645 
	C68.446014,36.178310 71.103920,39.636597 70.919083,48.685894 
	C64.430176,48.685894 57.925270,48.685894 51.417923,48.679169 
	C50.442131,40.598923 52.305641,37.605309 60.261200,35.048645 
z"/>
<path fill="#151515" opacity="1.000000" stroke="none" 
	d="
M46.241322,71.443542 
	C45.716015,69.325478 44.932503,67.499397 45.149303,65.800995 
	C45.316669,64.489861 46.738747,63.338894 47.602966,62.116718 
	C48.720055,63.071384 50.141335,63.833961 50.890762,65.020790 
	C52.439743,67.473816 53.020866,70.889229 55.084999,72.599083 
	C60.992455,77.492622 68.569923,74.281151 70.848236,66.680351 
	C71.375595,64.921028 73.369156,63.601192 74.688042,62.079124 
	C75.369713,64.071106 76.807625,66.148888 76.593178,68.039207 
	C75.912987,74.034927 70.198090,79.590607 64.222389,80.808464 
	C57.292389,82.220825 51.095402,79.082787 46.241322,71.443542 
z"/>
</svg>