<svg version="1.1" id="Layer_1" xmlns="http://www.w3.org/2000/svg" xmlns:xlink="http://www.w3.org/1999/xlink" x="0px" y="0px"
	 width="100%" viewBox="0 0 90 74" enable-background="new 0 0 90 74" xml:space="preserve">
<path fill="none" opacity="1.000000" stroke="#000000" stroke-linecap="round" stroke-linejoin="round" stroke-width="3.000000"
	d="
M42.000000,30.500000 
	C44.249985,33.500000 44.249985,36.500000 42.000000,39.500000 
"/>
<path fill="none" opacity="1.000000" stroke="#000000" stroke-linecap="round" stroke-linejoin="round" stroke-width="3.000000"
	d="
M53.500000,16.000000 
	C46.015671,18.229008 39.867245,23.077682 33.076782,26.646112 
	C28.057194,29.283939 28.586750,34.074417 33.476814,37.532787 
	C34.290024,38.107910 35.581371,37.808826 36.023689,39.244644 
	C36.098515,41.772751 33.348732,42.018997 31.975868,43.477280 
	C30.010084,45.565372 28.551519,47.561733 30.474314,50.516712 
	C32.459354,53.567356 35.142834,55.071526 38.466549,53.432182 
	C44.748966,50.333523 51.028683,47.142117 56.938744,43.403172 
	C61.743671,40.363373 61.421486,36.598759 57.062653,32.925652 
	C56.080772,32.098248 54.491459,32.429478 53.943031,30.254116 
	C53.883629,29.477976 54.757534,28.657557 55.992657,27.986483 
	C58.563995,26.589409 60.769924,24.424850 60.349556,21.521786 
	C59.891182,18.356306 57.417912,16.354589 54.000000,16.000000 
"/>
</svg>