<svg version="1.1" id="Layer_1" xmlns="http://www.w3.org/2000/svg" xmlns:xlink="http://www.w3.org/1999/xlink" x="0px" y="0px"
	 width="100%" viewBox="0 0 80 68" enable-background="new 0 0 80 68" xml:space="preserve">
<path fill="#FFFFFF" opacity="1.000000" stroke="none" 
	d="
M48.000000,69.000000 
	C32.000000,69.000000 16.500000,69.000000 1.000000,69.000000 
	C1.000000,46.333332 1.000000,23.666666 1.000000,1.000000 
	C27.666666,1.000000 54.333332,1.000000 81.000000,1.000000 
	C81.000000,23.666666 81.000000,46.333332 81.000000,69.000000 
	C70.166664,69.000000 59.333332,69.000000 48.000000,69.000000 
M22.327116,52.310287 
	C34.266808,52.530098 46.206886,52.842915 58.145470,52.793697 
	C59.103798,52.789745 60.815521,50.325451 60.875061,48.948193 
	C61.162720,42.294174 61.225559,35.607578 60.825459,28.965221 
	C60.741501,27.571341 58.405357,25.210543 57.051521,25.170475 
	C46.394527,24.855062 35.721882,24.893946 25.060402,25.121244 
	C23.698988,25.150269 21.226124,26.878328 21.213417,27.844854 
	C21.109077,35.781395 21.465445,43.723991 22.327116,52.310287 
M51.177422,18.994570 
	C44.044361,18.994608 36.909058,18.899256 29.779943,19.066975 
	C28.155703,19.105186 26.552862,20.053053 24.940172,20.582239 
	C25.063480,20.973534 25.186789,21.364828 25.310097,21.756123 
	C35.774105,21.756123 46.238117,21.756123 56.702126,21.756123 
	C56.811520,21.328173 56.920910,20.900223 57.030304,20.472273 
	C55.384277,19.979713 53.738251,19.487154 51.177422,18.994570 
z"/>
<path fill="#060606" opacity="1.000000" stroke="none" 
	d="
M22.004560,51.987518 
	C21.465445,43.723991 21.109077,35.781395 21.213417,27.844854 
	C21.226124,26.878328 23.698988,25.150269 25.060402,25.121244 
	C35.721882,24.893946 46.394527,24.855062 57.051521,25.170475 
	C58.405357,25.210543 60.741501,27.571341 60.825459,28.965221 
	C61.225559,35.607578 61.162720,42.294174 60.875061,48.948193 
	C60.815521,50.325451 59.103798,52.789745 58.145470,52.793697 
	C46.206886,52.842915 34.266808,52.530098 22.004560,51.987518 
M34.523552,49.994572 
	C42.282085,49.994572 50.040619,49.994572 57.698593,49.994572 
	C57.698593,42.336315 57.698593,35.267769 57.698593,28.300440 
	C46.335182,28.300440 35.270016,28.300440 24.303192,28.300440 
	C24.303192,35.667282 24.303192,42.735855 24.303192,49.994572 
	C27.577684,49.994572 30.556011,49.994572 34.523552,49.994572 
z"/>
<path fill="#060606" opacity="1.000000" stroke="none" 
	d="
M51.634823,18.994583 
	C53.738251,19.487154 55.384277,19.979713 57.030304,20.472273 
	C56.920910,20.900223 56.811520,21.328173 56.702126,21.756123 
	C46.238117,21.756123 35.774105,21.756123 25.310097,21.756123 
	C25.186789,21.364828 25.063480,20.973534 24.940172,20.582239 
	C26.552862,20.053053 28.155703,19.105186 29.779943,19.066975 
	C36.909058,18.899256 44.044361,18.994608 51.634823,18.994583 
z"/>
<path fill="#FFFFFF" opacity="1.000000" stroke="none" 
	d="
M34.028946,49.994572 
	C30.556011,49.994572 27.577684,49.994572 24.303192,49.994572 
	C24.303192,42.735855 24.303192,35.667282 24.303192,28.300440 
	C35.270016,28.300440 46.335182,28.300440 57.698593,28.300440 
	C57.698593,35.267769 57.698593,42.336315 57.698593,49.994572 
	C50.040619,49.994572 42.282085,49.994572 34.028946,49.994572 
M41.574848,35.785667 
	C40.330532,35.124161 39.086212,34.462658 37.288952,33.507198 
	C37.288952,37.418530 37.288952,40.607178 37.288952,44.547909 
	C40.575939,42.750305 43.506420,41.147667 47.020969,39.225613 
	C45.215187,38.017563 43.744194,37.033482 41.574848,35.785667 
z"/>
<path fill="#151515" opacity="1.000000" stroke="none" 
	d="
M41.924026,35.917534 
	C43.744194,37.033482 45.215187,38.017563 47.020969,39.225613 
	C43.506420,41.147667 40.575939,42.750305 37.288952,44.547909 
	C37.288952,40.607178 37.288952,37.418530 37.288952,33.507198 
	C39.086212,34.462658 40.330532,35.124161 41.924026,35.917534 
z"/>
</svg>