<svg version="1.1" id="Layer_1" xmlns="http://www.w3.org/2000/svg" xmlns:xlink="http://www.w3.org/1999/xlink" x="0px" y="0px"
	 width="100%" viewBox="0 0 118 120" enable-background="new 0 0 118 120" xml:space="preserve">
<path fill="#FFFFFF" opacity="1.000000" stroke="none" 
	d="
M79.000000,121.000000 
	C52.666668,121.000000 26.833334,121.000000 1.000000,121.000000 
	C1.000000,81.000000 1.000000,41.000000 1.000000,1.000000 
	C40.333332,1.000000 79.666664,1.000000 119.000000,1.000000 
	C119.000000,41.000000 119.000000,81.000000 119.000000,121.000000 
	C105.833336,121.000000 92.666664,121.000000 79.000000,121.000000 
M24.875687,88.604286 
	C35.398411,100.420296 48.514187,104.063972 63.111519,98.653137 
	C76.092354,93.841484 83.967979,83.659172 84.628967,69.603783 
	C85.386650,53.492481 84.950539,37.324768 85.010384,21.181479 
	C85.014809,19.988083 84.836418,18.794012 84.712639,17.212076 
	C76.704399,22.504265 69.201485,27.462517 60.887711,32.956619 
	C60.887711,28.497265 60.887711,25.001570 60.887711,21.043173 
	C51.452583,26.619564 42.541405,31.693111 33.823330,37.079216 
	C15.837918,48.190765 11.584671,71.713890 24.875687,88.604286 
z"/>
<path fill="#0F0F0F" opacity="1.000000" stroke="none" 
	d="
M24.673199,88.310257 
	C11.584671,71.713890 15.837918,48.190765 33.823330,37.079216 
	C42.541405,31.693111 51.452583,26.619564 60.887711,21.043173 
	C60.887711,25.001570 60.887711,28.497265 60.887711,32.956619 
	C69.201485,27.462517 76.704399,22.504265 84.712639,17.212076 
	C84.836418,18.794012 85.014809,19.988083 85.010384,21.181479 
	C84.950539,37.324768 85.386650,53.492481 84.628967,69.603783 
	C83.967979,83.659172 76.092354,93.841484 63.111519,98.653137 
	C48.514187,104.063972 35.398411,100.420296 24.673199,88.310257 
M78.979790,56.487640 
	C78.979790,47.318184 78.979790,38.148724 78.979790,28.271067 
	C70.541527,33.847946 63.013603,38.823181 54.735786,44.294022 
	C54.735786,39.559788 54.735786,35.847988 54.735786,31.581043 
	C47.682331,35.854389 41.018612,39.526043 34.746674,43.775890 
	C24.977274,50.395584 20.749058,63.994656 24.369087,75.703011 
	C27.763186,86.680626 39.316525,94.975204 51.204773,94.969383 
	C62.903637,94.963654 74.026299,87.236595 77.211533,75.673172 
	C78.805641,69.886040 78.452324,63.562458 78.979790,56.487640 
z"/>
<path fill="#FDFDFD" opacity="1.000000" stroke="none" 
	d="
M78.979790,56.984570 
	C78.452324,63.562458 78.805641,69.886040 77.211533,75.673172 
	C74.026299,87.236595 62.903637,94.963654 51.204773,94.969383 
	C39.316525,94.975204 27.763186,86.680626 24.369087,75.703011 
	C20.749058,63.994656 24.977274,50.395584 34.746674,43.775890 
	C41.018612,39.526043 47.682331,35.854389 54.735786,31.581043 
	C54.735786,35.847988 54.735786,39.559788 54.735786,44.294022 
	C63.013603,38.823181 70.541527,33.847946 78.979790,28.271067 
	C78.979790,38.148724 78.979790,47.318184 78.979790,56.984570 
M47.436131,61.848526 
	C46.339344,62.844219 45.120110,63.735653 44.167664,64.854248 
	C40.659725,68.974121 40.061420,74.969070 42.626125,79.192657 
	C45.153431,83.354660 50.818134,85.773239 55.536919,84.705009 
	C60.776081,83.518974 64.550186,79.573715 64.852074,73.901566 
	C65.210297,67.171280 64.936325,60.407349 64.936325,53.072842 
	C58.964287,56.035072 53.506695,58.742130 47.436131,61.848526 
z"/>
<path fill="#090909" opacity="1.000000" stroke="none" 
	d="
M47.742615,61.648857 
	C53.506695,58.742130 58.964287,56.035072 64.936325,53.072842 
	C64.936325,60.407349 65.210297,67.171280 64.852074,73.901566 
	C64.550186,79.573715 60.776081,83.518974 55.536919,84.705009 
	C50.818134,85.773239 45.153431,83.354660 42.626125,79.192657 
	C40.061420,74.969070 40.659725,68.974121 44.167664,64.854248 
	C45.120110,63.735653 46.339344,62.844219 47.742615,61.648857 
z"/>
</svg>