<svg version="1.1" id="Layer_1" xmlns="http://www.w3.org/2000/svg" xmlns:xlink="http://www.w3.org/1999/xlink" x="0px" y="0px"
	 width="100%" viewBox="0 0 128 128" enable-background="new 0 0 128 128" xml:space="preserve">
<path fill="#000000" opacity="1.000000" stroke="none" 
	d="
M93.983116,98.991699 
	C80.411942,111.332771 60.763828,112.747086 44.692078,102.752502 
	C30.361794,93.840881 23.282961,74.769722 28.158632,58.168564 
	C33.004852,41.667694 44.155563,31.779119 60.870342,29.106853 
	C77.261124,26.486385 91.004097,32.601280 100.381943,46.106457 
	C111.255966,61.766289 110.235008,84.186615 93.983116,98.991699 
M34.151268,65.307365 
	C31.643993,83.052193 44.776173,102.481812 67.272041,102.272156 
	C88.340622,102.075798 102.556816,84.367508 99.801117,64.245956 
	C97.591385,48.111027 84.726631,35.884777 66.635338,35.634697 
	C50.059910,35.405567 36.251087,48.184647 34.151268,65.307365 
z"/>
<path fill="#000000" opacity="1.000000" stroke="none" 
	d="
M80.835327,83.657532 
	C75.814354,80.008850 71.110161,76.593452 66.443108,73.128036 
	C64.792435,71.902374 63.629616,70.403427 63.656521,68.134224 
	C63.727470,62.151012 63.675556,56.166428 63.690834,50.182438 
	C63.696354,48.021381 64.189423,46.054878 66.802193,45.915337 
	C69.403137,45.776432 70.593689,47.660042 70.228577,49.794315 
	C68.074539,62.385578 72.353020,71.564117 83.956329,77.294441 
	C85.725899,78.168358 86.974960,80.146904 85.860817,82.379509 
	C84.886658,84.331619 83.127281,84.611916 80.835327,83.657532 
z"/>
</svg>