<svg version="1.1" id="Layer_1" xmlns="http://www.w3.org/2000/svg" xmlns:xlink="http://www.w3.org/1999/xlink" x="0px" y="0px"
	 width="100%" viewBox="0 0 72 68" enable-background="new 0 0 72 68" xml:space="preserve">
<path fill="none" opacity="1.000000" stroke="#000000" stroke-linecap="round" stroke-linejoin="round" stroke-width="3.000000"
	d="
M32.000000,28.500000 
	C33.662331,34.507671 37.901047,35.957123 43.500000,35.000000 
"/>
<path fill="none" opacity="1.000000" stroke="#000000" stroke-linecap="round" stroke-linejoin="round" stroke-width="3.000000"
	d="
M35.500000,35.500000 
	C34.333336,37.500000 33.166668,39.500000 32.000000,41.500000 
"/>
<path fill="none" opacity="1.000000" stroke="#000000" stroke-linecap="round" stroke-linejoin="round" stroke-width="4.000000"
	d="
M20.500000,20.500000 
	C18.168484,21.000908 18.497427,22.827326 18.498358,24.500000 
	C18.502253,31.499998 18.623631,38.503189 18.443272,45.498539 
	C18.363564,48.590065 19.412157,49.607224 22.500925,49.557331 
	C32.165073,49.401245 41.834927,49.401249 51.499073,49.557331 
	C54.587841,49.607224 55.636429,48.590065 55.556725,45.498539 
	C55.376362,38.503189 55.376362,31.496813 55.556725,24.501463 
	C55.636433,21.409933 54.587536,20.396410 51.499142,20.442682 
	C41.334755,20.594980 31.166666,20.500000 21.000000,20.500000 
"/>
</svg>